<?xml version="1.0" encoding="UTF-8"?>
<svg version="1.1" xmlns="http://www.w3.org/2000/svg" width="512" height="512">
<path d="M0 0 C2.90890717 0.00536159 5.81765999 0.00002292 8.7265625 -0.00634766 C23.50812375 -0.0143032 37.66618442 0.48470988 52.1640625 3.69287109 C53.36716064 3.95753174 54.57025879 4.22219238 55.80981445 4.49487305 C103.3409208 15.27182326 145.84940333 37.25940245 180.9140625 71.13037109 C181.53490723 71.72930176 182.15575195 72.32823242 182.79541016 72.9453125 C190.69545051 80.60805503 198.24849146 88.34665629 204.9140625 97.13037109 C205.3467041 97.69723633 205.7793457 98.26410156 206.22509766 98.84814453 C212.65054472 107.303035 218.57430724 115.94096639 223.9140625 125.13037109 C224.29385254 125.77248535 224.67364258 126.41459961 225.06494141 127.07617188 C239.32533976 151.28381548 248.92954957 177.16820943 254.7890625 204.63037109 C254.98024658 205.52361084 255.17143066 206.41685059 255.3684082 207.3371582 C258.57214043 223.41689819 259.29073564 239.46216009 259.2265625 255.81787109 C259.22382828 257.26895767 259.22382828 257.26895767 259.22103882 258.74935913 C259.17561076 273.08228086 258.66672322 287.02811026 255.9140625 301.13037109 C255.75309082 302.02739746 255.59211914 302.92442383 255.42626953 303.84863281 C246.04691683 355.68284617 220.16334049 401.99397022 183.2265625 439.13037109 C182.37199463 439.99049805 181.51742676 440.850625 180.63696289 441.73681641 C165.23421571 456.96683078 147.61086879 469.31196394 128.9140625 480.13037109 C128.23682129 480.52466309 127.55958008 480.91895508 126.86181641 481.32519531 C100.94282441 496.23322481 71.45054612 505.79188928 41.9140625 510.13037109 C40.70943359 510.30769775 39.50480469 510.48502441 38.26367188 510.66772461 C26.60638896 512.2666961 15.04220152 512.48877639 3.2890625 512.44287109 C1.83422958 512.44013687 1.83422958 512.44013687 0.3500061 512.43734741 C-14.00149805 512.39195419 -27.96536668 511.88660579 -42.0859375 509.13037109 C-42.98296387 508.96939941 -43.87999023 508.80842773 -44.80419922 508.64257812 C-88.78797575 500.68375466 -130.61454651 480.76370925 -164.0859375 451.13037109 C-164.88773437 450.43943359 -165.68953125 449.74849609 -166.515625 449.03662109 C-178.22794395 438.78341258 -189.87196441 427.71061827 -199.0859375 415.13037109 C-199.9272372 414.02793142 -200.76978251 412.92644165 -201.61328125 411.82568359 C-225.46235587 380.38576258 -241.44598309 344.39197072 -249.3984375 305.75537109 C-249.61947144 304.68959839 -249.61947144 304.68959839 -249.8449707 303.60229492 C-252.83137767 287.95996058 -253.46074704 272.32361016 -253.3984375 256.44287109 C-253.39661469 255.47548004 -253.39479187 254.50808899 -253.39291382 253.51138306 C-253.34748576 239.17846132 -252.83859822 225.23263193 -250.0859375 211.13037109 C-249.84447998 209.78483154 -249.84447998 209.78483154 -249.59814453 208.41210938 C-238.74660277 148.4419655 -204.718622 91.26011524 -156.0859375 54.13037109 C-155.20421875 53.43169922 -154.3225 52.73302734 -153.4140625 52.01318359 C-121.32375889 27.10330703 -83.98539944 11.75944996 -44.4609375 3.25537109 C-43.52628662 3.05194092 -42.59163574 2.84851074 -41.62866211 2.63891602 C-27.87202089 -0.15898324 -13.97450401 -0.03060454 0 0 Z " fill="#000000" transform="translate(253.0859375,-0.13037109375)"/>
<path d="M0 0 C0.72614502 0.00008057 1.45229004 0.00016113 2.20043945 0.00024414 C4.4150722 -0.00194063 6.62920561 -0.02008844 8.84375 -0.0390625 C10.245441 -0.04199669 11.64713437 -0.04398131 13.04882812 -0.04492188 C14.33072021 -0.04903076 15.6126123 -0.05313965 16.93334961 -0.05737305 C19.99023438 0.18554688 19.99023438 0.18554688 21.99023438 2.18554688 C22.45968229 4.84864957 22.8273938 7.44046712 23.11523438 10.12304688 C23.20160156 10.85201172 23.28796875 11.58097656 23.37695312 12.33203125 C23.71969843 15.29977036 23.99023438 18.19594416 23.99023438 21.18554688 C24.87710937 21.45367187 25.76398438 21.72179687 26.67773438 21.99804688 C29.99023438 23.18554688 29.99023438 23.18554688 32.30273438 24.99804688 C36.07152385 26.66332594 38.12682746 25.52001124 41.85742188 24.09179688 C43.45214142 23.4141871 45.03654818 22.71221444 46.61523438 21.99804688 C50.32322408 20.72952408 52.04899903 20.37553838 55.99023438 21.18554688 C59.08575947 24.75715337 61.23672645 28.79780333 63.49023438 32.93554688 C64.13476562 34.04671875 64.77929688 35.15789062 65.44335938 36.30273438 C70.05240732 44.4769006 70.05240732 44.4769006 69.79638672 47.39501953 C68.52711109 50.21417987 66.43198523 51.80269613 64.11523438 53.81054688 C63.2309375 54.5865625 62.34664063 55.36257813 61.43554688 56.16210938 C58.99023437 58.18554688 58.99023437 58.18554688 55.99023438 60.18554688 C54.89467503 65.39260192 54.84867407 70.02958968 55.99023438 75.18554688 C59.22831538 78.54176682 62.83223606 80.18778213 66.99023438 82.18554688 C68.90820312 83.48242188 68.90820312 83.48242188 69.99023438 85.18554688 C69.90589069 90.52220169 67.43774773 94.31368573 64.67773438 98.68554688 C64.09088867 99.64267578 64.09088867 99.64267578 63.4921875 100.61914062 C61.07571434 104.5383956 58.54697912 108.35042976 55.99023438 112.18554688 C84.70023437 112.51554687 113.41023438 112.84554687 142.99023438 113.18554688 C139.73273973 119.70053616 136.74209859 125.43770083 132.55273438 131.24804688 C131.77240845 132.33520996 131.77240845 132.33520996 130.97631836 133.44433594 C121.9389697 145.88462858 112.15023816 157.27941832 101.30273438 168.18554688 C100.4481665 169.04567383 99.59359863 169.90580078 98.71313477 170.79199219 C83.31038758 186.02200656 65.68704066 198.36713972 46.99023438 209.18554688 C46.31299316 209.57983887 45.63575195 209.97413086 44.93798828 210.38037109 C19.01899628 225.28840059 -10.47328201 234.84706506 -40.00976562 239.18554688 C-41.21439453 239.36287354 -42.41902344 239.5402002 -43.66015625 239.72290039 C-55.31743916 241.32187188 -66.8816266 241.54395217 -78.63476562 241.49804688 C-79.60465424 241.49622406 -80.57454285 241.49440125 -81.57382202 241.49252319 C-95.92532618 241.44712997 -109.8891948 240.94178158 -124.00976562 238.18554688 C-124.90679199 238.0245752 -125.80381836 237.86360352 -126.72802734 237.69775391 C-170.71180387 229.73893045 -212.53837464 209.81888503 -246.00976562 180.18554688 C-246.8115625 179.49460937 -247.61335938 178.80367187 -248.43945312 178.09179688 C-260.14768105 167.84216974 -271.80986319 156.77086039 -281.00976562 144.18554688 C-281.87480885 143.03647487 -282.74076769 141.88809184 -283.60742188 140.74023438 C-288.34492175 134.42000688 -292.8994264 128.0010816 -297.19726562 121.37304688 C-297.58390381 120.78040039 -297.97054199 120.18775391 -298.36889648 119.57714844 C-301.00976562 115.43408327 -301.00976562 115.43408327 -301.00976562 113.18554688 C-216.85976562 112.85554688 -132.70976562 112.52554688 -46.00976562 112.18554688 C-51.89786131 102.26191833 -51.89786131 102.26191833 -58.13476562 92.56054688 C-60.00976562 89.18554688 -60.00976562 89.18554688 -60.03710938 86.75195312 C-58.79007891 83.63674775 -57.09104186 82.63565881 -54.29418945 80.90258789 C-49.85925007 78.13023781 -46.63527048 75.7475012 -44.65820312 70.81054688 C-44.26325643 66.62227497 -44.45223747 64.11227279 -46.00976562 60.18554688 C-49.89137495 55.57820506 -54.94347811 52.35197657 -60.00976562 49.18554688 C-59.47850388 44.7386742 -58.41129338 41.64914436 -56.10351562 37.82226562 C-55.52472656 36.85353516 -54.9459375 35.88480469 -54.34960938 34.88671875 C-53.74246094 33.89220703 -53.1353125 32.89769531 -52.50976562 31.87304688 C-51.59904297 30.35227539 -51.59904297 30.35227539 -50.66992188 28.80078125 C-46.20998884 21.38577009 -46.20998884 21.38577009 -45.00976562 20.18554688 C-39.57821362 19.34992349 -35.99977941 21.46670757 -31.37695312 23.99414062 C-29.16078555 25.1095385 -27.47698468 25.94386011 -25.00976562 26.18554688 C-23.16283382 25.22554786 -23.16283382 25.22554786 -21.50976562 23.74804688 C-18.54772108 21.27743244 -18.207782 21.18554688 -14.00976562 21.18554688 C-13.94917969 20.32832031 -13.88859375 19.47109375 -13.82617188 18.58789062 C-12.46724422 0.04375472 -12.46724422 0.04375472 0 0 Z " fill="#1DE8B5" transform="translate(335.009765625,270.814453125)"/>
<path d="M0 0 C0.91104492 -0.00960754 1.82208984 -0.01921509 2.76074219 -0.02911377 C3.74204102 -0.03336365 4.72333984 -0.03761353 5.734375 -0.04199219 C6.7440332 -0.04769226 7.75369141 -0.05339233 8.79394531 -0.05926514 C10.9290258 -0.0687113 13.06412084 -0.0752476 15.19921875 -0.07910156 C18.47161052 -0.08882924 21.74338007 -0.11986543 25.015625 -0.15136719 C27.08853793 -0.1578951 29.16145536 -0.1631464 31.234375 -0.16699219 C32.70632324 -0.18551239 32.70632324 -0.18551239 34.20800781 -0.20440674 C35.11905273 -0.20140564 36.03009766 -0.19840454 36.96875 -0.1953125 C38.17096191 -0.20078094 38.17096191 -0.20078094 39.39746094 -0.20635986 C42.04859645 0.26048873 42.90534026 1.00377699 44.484375 3.16113281 C44.97728042 6.05731675 45.31506635 8.80722543 45.546875 11.72363281 C45.71152227 13.35404634 45.87817555 14.98425858 46.046875 16.61425781 C46.30259532 19.20768809 46.53352078 21.79695636 46.734375 24.39550781 C47.30479544 29.17812019 47.30479544 29.17812019 50.3671875 32.69238281 C52.65879184 34.00941738 52.65879184 34.00941738 55.1015625 35.06347656 C57.47278264 36.15579272 59.26001724 37.41810944 61.296875 39.03613281 C64.11469316 41.4168876 64.11469316 41.4168876 66.37158203 40.9230957 C68.77858097 40.05502964 71.126488 39.1077654 73.4765625 38.09472656 C74.42917969 37.69189453 75.38179687 37.2890625 76.36328125 36.87402344 C78.35548023 36.02597524 80.34509616 35.17183239 82.33203125 34.31152344 C92.29001277 30.1254084 92.29001277 30.1254084 96.484375 31.16113281 C98.5390625 33.51269531 98.5390625 33.51269531 100.359375 36.78613281 C100.69251709 37.36935303 101.02565918 37.95257324 101.36889648 38.5534668 C102.07150178 39.78850359 102.76426541 41.02918425 103.44775391 42.27490234 C104.77792211 44.69526963 106.1599445 47.08396228 107.54174805 49.47509766 C108.54457048 51.21962382 109.53049162 52.97297705 110.515625 54.72753906 C111.82520183 57.01150342 113.17971161 59.27029849 114.578125 61.50097656 C115.2278125 62.54382813 115.8775 63.58667969 116.546875 64.66113281 C117.13597656 65.57894531 117.72507812 66.49675781 118.33203125 67.44238281 C119.81685406 70.94555798 119.72807683 72.57189446 118.484375 76.16113281 C116.078125 78.68847656 116.078125 78.68847656 112.984375 81.09863281 C111.48390625 82.28779297 111.48390625 82.28779297 109.953125 83.50097656 C108.0550166 85.00524032 106.17576901 86.35390805 104.11865234 87.63891602 C100.64081034 89.95067433 98.01502842 91.69931964 96.55761719 95.71411133 C96.12401528 98.69214925 96.03145451 101.46556188 96.109375 104.47363281 C96.12299072 105.50166016 96.13660645 106.5296875 96.15063477 107.58886719 C96.44251143 112.31011341 96.79339183 116.08462521 100.09765625 119.64160156 C103.28358122 122.31344844 106.82533279 124.20882505 110.484375 126.16113281 C112.28463736 127.38992225 114.06050615 128.65610054 115.796875 129.97363281 C116.51488281 130.47507813 117.23289062 130.97652344 117.97265625 131.49316406 C119.484375 133.16113281 119.484375 133.16113281 119.9921875 135.36816406 C119.24552422 139.4748121 117.23318312 142.5216116 115.046875 146.03613281 C114.59675049 146.77847168 114.14662598 147.52081055 113.68286133 148.28564453 C112.74945464 149.82415511 111.81182894 151.36011352 110.87011719 152.89355469 C109.55850838 155.03982364 108.27039934 157.19797108 106.9921875 159.36425781 C106.21878665 160.67157116 105.44535081 161.97886381 104.671875 163.28613281 C104.32390869 163.8763623 103.97594238 164.4665918 103.61743164 165.07470703 C101.10912812 169.27130323 98.36175956 173.21414457 95.484375 177.16113281 C86.52368771 176.63403356 78.52975928 173.08876521 70.484375 169.28613281 C67.05343709 167.9995311 65.9391435 168.16377405 62.484375 169.16113281 C59.94764212 170.51646542 59.94764212 170.51646542 57.484375 172.16113281 C54.11520028 174.35109638 51.47827879 175.59057513 47.484375 176.16113281 C47.52304688 177.07378906 47.56171875 177.98644531 47.6015625 178.92675781 C47.59883691 184.33977689 46.55187685 189.59702666 45.609375 194.91113281 C45.43535156 195.95140625 45.26132813 196.99167969 45.08203125 198.06347656 C44.90800781 199.05992187 44.73398438 200.05636719 44.5546875 201.08300781 C44.39758301 201.98631836 44.24047852 202.88962891 44.07861328 203.8203125 C43.484375 206.16113281 43.484375 206.16113281 41.484375 209.16113281 C39.47975159 209.54881287 39.47975159 209.54881287 36.99047852 209.56518555 C35.59376671 209.58421181 35.59376671 209.58421181 34.1688385 209.60362244 C32.65633766 209.59921898 32.65633766 209.59921898 31.11328125 209.59472656 C30.08001205 209.59996841 29.04674286 209.60521027 27.98216248 209.61061096 C25.79402567 209.61704268 23.60585435 209.61567937 21.41772461 209.60717773 C18.06366536 209.59867538 14.71131234 209.6274021 11.35742188 209.65917969 C9.23437551 209.66079187 7.11132612 209.66021384 4.98828125 209.65722656 C3.98197159 209.66846054 2.97566193 209.67969452 1.93885803 209.69126892 C1.00456467 209.68188797 0.0702713 209.67250702 -0.89233398 209.6628418 C-2.12571754 209.66259254 -2.12571754 209.66259254 -3.38401794 209.66233826 C-5.515625 209.16113281 -5.515625 209.16113281 -7.26551819 207.31285095 C-8.90682244 204.48779304 -9.15540673 202.09887882 -9.515625 198.85644531 C-9.76505859 197.02146484 -9.76505859 197.02146484 -10.01953125 195.14941406 C-10.34878869 192.58535412 -10.64857203 190.01732762 -10.91796875 187.44628906 C-11.80058347 180.41399934 -11.80058347 180.41399934 -16.015625 175.046875 C-18.79895502 173.54879943 -21.59633599 172.36390955 -24.515625 171.16113281 C-25.23621094 170.61739014 -25.95679688 170.07364746 -26.69921875 169.51342773 C-28.48931312 167.89138461 -28.48931312 167.89138461 -31.140625 168.21972656 C-36.68489354 169.76621813 -41.89139913 172.09482977 -47.171875 174.36621094 C-56.53652194 178.2657966 -56.53652194 178.2657966 -60.515625 177.16113281 C-62.65416808 174.76374713 -64.01745716 171.98713557 -65.515625 169.16113281 C-66.64631845 167.22920834 -67.78345124 165.30104331 -68.92578125 163.37597656 C-70.14451491 161.28427726 -71.36193882 159.19181433 -72.578125 157.09863281 C-73.18978516 156.04869141 -73.80144531 154.99875 -74.43164062 153.91699219 C-75.6100385 151.89269573 -76.78423439 149.8659456 -77.95361328 147.83642578 C-78.89039983 146.23197017 -79.84634645 144.63815131 -80.83935547 143.06787109 C-82.46533157 140.46330489 -83.52600332 138.11993887 -84.27734375 135.13769531 C-83.03364208 130.27769187 -79.30544696 128.31993297 -75.328125 125.53613281 C-73.05639602 123.88327384 -70.78494661 122.23010053 -68.5168457 120.57226562 C-66.515625 119.16113281 -66.515625 119.16113281 -63.546875 117.41894531 C-59.14100013 112.52164594 -60.00373207 104.95025362 -60.30078125 98.69628906 C-61.03884764 93.39384122 -62.8091861 90.87057709 -66.95629883 87.57519531 C-69.74313661 85.69134654 -72.59179924 83.9739275 -75.52050781 82.32080078 C-78.63628723 80.50974447 -80.99663648 78.77150419 -83.515625 76.16113281 C-84.57119535 71.08891167 -82.49864772 67.6227846 -79.890625 63.41113281 C-79.34148437 62.48989624 -79.34148437 62.48989624 -78.78125 61.55004883 C-77.70363505 59.74688063 -76.61026049 57.95399897 -75.515625 56.16113281 C-74.51548995 54.47371285 -73.51547358 52.78622254 -72.515625 51.09863281 C-71.51795725 49.45138468 -70.51773395 47.8056829 -69.515625 46.16113281 C-69.18498047 45.61473145 -68.85433594 45.06833008 -68.51367188 44.50537109 C-67.4341555 42.72201396 -66.35041118 40.94128848 -65.265625 39.16113281 C-64.60046875 38.06800781 -63.9353125 36.97488281 -63.25 35.84863281 C-61.515625 33.16113281 -61.515625 33.16113281 -59.515625 31.16113281 C-52.05219751 31.37803559 -45.65136235 35.01791843 -38.99023438 38.09863281 C-38.08724609 38.50339844 -37.18425781 38.90816406 -36.25390625 39.32519531 C-35.03247925 39.88907959 -35.03247925 39.88907959 -33.78637695 40.46435547 C-31.1954714 41.25937154 -30.0206422 41.11303269 -27.515625 40.16113281 C-26.02515224 39.2316198 -24.56779416 38.24768928 -23.140625 37.22363281 C-19.66586291 34.81538186 -16.54233424 33.46981332 -12.515625 32.16113281 C-11.49786641 29.10785704 -11.14055366 26.44675121 -10.796875 23.25097656 C-10.66925781 22.09662109 -10.54164063 20.94226563 -10.41015625 19.75292969 C-10.14671854 17.31287049 -9.88369902 14.87276611 -9.62109375 12.43261719 C-9.49347656 11.27955078 -9.36585938 10.12648438 -9.234375 8.93847656 C-9.12029297 7.87878662 -9.00621094 6.81909668 -8.88867188 5.72729492 C-8.515625 3.16113281 -8.515625 3.16113281 -7.515625 1.16113281 C-4.6951406 0.22097135 -2.92317557 0.02490341 0 0 Z " fill="#FCFCFC" transform="translate(190.515625,106.8388671875)"/>
<path d="M0 0 C0.72614502 0.00008057 1.45229004 0.00016113 2.20043945 0.00024414 C4.4150722 -0.00194063 6.62920561 -0.02008844 8.84375 -0.0390625 C10.245441 -0.04199669 11.64713437 -0.04398131 13.04882812 -0.04492188 C14.33072021 -0.04903076 15.6126123 -0.05313965 16.93334961 -0.05737305 C19.99023438 0.18554688 19.99023438 0.18554688 21.99023438 2.18554688 C22.45968229 4.84864957 22.8273938 7.44046712 23.11523438 10.12304688 C23.20160156 10.85201172 23.28796875 11.58097656 23.37695312 12.33203125 C23.71969843 15.29977036 23.99023438 18.19594416 23.99023438 21.18554688 C24.87710938 21.45367187 25.76398438 21.72179687 26.67773438 21.99804688 C29.99023438 23.18554688 29.99023438 23.18554688 32.30273438 24.99804688 C36.07152385 26.66332594 38.12682746 25.52001124 41.85742188 24.09179688 C43.45214142 23.4141871 45.03654818 22.71221444 46.61523438 21.99804688 C50.32322408 20.72952408 52.04899903 20.37553838 55.99023438 21.18554688 C59.08575947 24.75715337 61.23672645 28.79780333 63.49023438 32.93554688 C64.13476562 34.04671875 64.77929688 35.15789062 65.44335938 36.30273438 C70.05240732 44.4769006 70.05240732 44.4769006 69.79638672 47.39501953 C68.52711109 50.21417987 66.43198523 51.80269613 64.11523438 53.81054688 C63.2309375 54.5865625 62.34664063 55.36257813 61.43554688 56.16210938 C58.99023438 58.18554688 58.99023438 58.18554688 55.99023438 60.18554688 C54.89467503 65.39260192 54.84867407 70.02958968 55.99023438 75.18554688 C59.22831538 78.54176682 62.83223606 80.18778213 66.99023438 82.18554688 C68.90820312 83.48242188 68.90820312 83.48242188 69.99023438 85.18554688 C69.89886679 90.492481 67.47806938 94.26820576 64.74023438 98.62304688 C64.35738281 99.25275391 63.97453125 99.88246094 63.58007812 100.53125 C60.90089308 104.890526 58.0006302 109.0489214 54.99023438 113.18554688 C49.57522936 112.71467687 45.35105918 111.21212705 40.41992188 108.92773438 C37.38364638 108.00025472 36.00650295 108.19205782 32.99023438 109.18554688 C31.97872314 109.85175049 30.96721191 110.5179541 29.92504883 111.2043457 C25.48791532 113.76651209 21.43100994 113.78105166 16.40039062 113.75195312 C15.49703476 113.7581517 14.59367889 113.76435028 13.66294861 113.77073669 C11.76106844 113.77780955 9.85912602 113.77470534 7.95727539 113.76196289 C5.06409567 113.74810131 2.17415699 113.7821994 -0.71875 113.8203125 C-2.57487058 113.82126391 -4.43099516 113.8194037 -6.28710938 113.81445312 C-7.14255844 113.82771133 -7.99800751 113.84096954 -8.87937927 113.85462952 C-14.45855894 113.76911313 -17.81526518 112.58156551 -22.32081604 109.26329041 C-24.07995416 107.93498731 -24.07995416 107.93498731 -26.88476562 108.12304688 C-30.51860298 109.35855158 -34.03713586 110.78853429 -37.54492188 112.34570312 C-40.28178923 113.27823321 -42.1440855 113.60641409 -45.00976562 113.18554688 C-46.52929688 111.70898438 -46.52929688 111.70898438 -47.82226562 109.56054688 C-48.31726563 108.7484375 -48.81226563 107.93632812 -49.32226562 107.09960938 C-50.15757812 105.65714844 -50.15757812 105.65714844 -51.00976562 104.18554688 C-51.71742036 103.00545218 -52.4257915 101.82578688 -53.13476562 100.64648438 C-53.86579611 99.41060577 -54.59497071 98.17362748 -55.32226562 96.93554688 C-55.84687378 96.05068604 -55.84687378 96.05068604 -56.38208008 95.14794922 C-58.27438308 91.84819049 -59.51922907 88.96765481 -60.00976562 85.18554688 C-58.05341456 83.53730615 -56.09481124 81.89188376 -54.13476562 80.24804688 C-53.57917969 79.77947266 -53.02359375 79.31089844 -52.45117188 78.828125 C-48.23632812 75.29882812 -48.23632812 75.29882812 -46.00976562 74.18554688 C-45.10420563 69.26246279 -44.82792171 65.07679163 -46.00976562 60.18554688 C-49.71252004 55.48933844 -54.99396533 52.32042206 -60.00976562 49.18554688 C-59.47850388 44.7386742 -58.41129338 41.64914436 -56.10351562 37.82226562 C-55.52472656 36.85353516 -54.9459375 35.88480469 -54.34960938 34.88671875 C-53.74246094 33.89220703 -53.1353125 32.89769531 -52.50976562 31.87304688 C-51.90261719 30.85919922 -51.29546875 29.84535156 -50.66992188 28.80078125 C-46.20998884 21.38577009 -46.20998884 21.38577009 -45.00976562 20.18554688 C-39.57821362 19.34992349 -35.99977941 21.46670757 -31.37695312 23.99414062 C-29.16078555 25.1095385 -27.47698468 25.94386011 -25.00976562 26.18554688 C-23.16283382 25.22554786 -23.16283382 25.22554786 -21.50976562 23.74804688 C-18.54772108 21.27743244 -18.207782 21.18554688 -14.00976562 21.18554688 C-13.91888672 19.89970703 -13.91888672 19.89970703 -13.82617188 18.58789062 C-12.46724422 0.04375472 -12.46724422 0.04375472 0 0 Z " fill="#FCFCFC" transform="translate(335.009765625,270.814453125)"/>
<path d="M0 0 C6.45178841 4.36500818 12.09272157 9.89330604 13.6328125 17.78125 C14.40834522 28.58785353 13.71371222 37.57499595 7.1328125 46.53125 C2.10929685 51.83175147 -4.50998631 55.23279016 -11.71875 56.2578125 C-21.02634714 56.49758667 -29.01162099 54.66570321 -36.3671875 48.78125 C-38.52866717 46.56149514 -40.52062675 44.26919319 -42.3671875 41.78125 C-42.91375 41.05421875 -43.4603125 40.3271875 -44.0234375 39.578125 C-45.80640301 35.86706888 -45.76820527 32.49453816 -45.6796875 28.46875 C-45.68291016 27.74751953 -45.68613281 27.02628906 -45.68945312 26.28320312 C-45.60676928 17.90206766 -44.0978747 11.78827577 -38.2265625 5.6015625 C-26.97659908 -5.41205715 -14.24279724 -8.05192804 0 0 Z " fill="#030303" transform="translate(224.3671875,185.21875)"/>
<path d="M0 0 C4.32026604 3.17906369 8.0906871 7.00168671 10.5078125 11.8359375 C11.16472059 19.53576184 11.40705281 25.64742342 6.5078125 31.8359375 C1.6143307 36.60165215 -2.27338478 39.15674694 -9.1796875 39.3359375 C-15.03861363 39.24533555 -18.55894153 38.59743321 -22.87109375 34.58203125 C-23.67353516 33.71771484 -23.67353516 33.71771484 -24.4921875 32.8359375 C-25.27916016 32.11083984 -25.27916016 32.11083984 -26.08203125 31.37109375 C-30.41788676 26.65089648 -30.153476 21.23015153 -29.90625 15.08203125 C-29.05832464 8.43461637 -25.0257911 5.15064345 -20.17578125 1.03515625 C-14.90235256 -2.7210911 -5.70384591 -2.66417881 0 0 Z " fill="#050505" transform="translate(349.4921875,319.1640625)"/>
<path d="M0 0 C3.17625 -0.061875 6.3525 -0.12375 9.625 -0.1875 C11.1092749 -0.22846802 11.1092749 -0.22846802 12.62353516 -0.27026367 C17.84934098 -0.31938435 21.49173633 0.04680196 26 3 C29.46110135 6.80721148 29.45694497 10.7021264 29.28125 15.62890625 C28.90143151 18.83098709 28.17582683 20.60659048 26 23 C20.48149535 27.10350346 14.57901757 26.21930059 8 26 C8 30.29 8 34.58 8 39 C5.36 39 2.72 39 0 39 C0 26.13 0 13.26 0 0 Z " fill="#424948" transform="translate(237,411)"/>
<path d="M0 0 C3.96 0 7.92 0 12 0 C13.85537863 5.23134786 15.70668807 10.46411065 17.55419922 15.69824219 C18.18360842 17.47956445 18.8141385 19.26049107 19.44580078 21.04101562 C20.35221848 23.59662973 21.25462896 26.15362783 22.15625 28.7109375 C22.44060913 29.50994476 22.72496826 30.30895203 23.01794434 31.13217163 C25 36.77225659 25 36.77225659 25 39 C22.03 39 19.06 39 16 39 C15.01 36.36 14.02 33.72 13 31 C6.07 30.505 6.07 30.505 -1 30 C-1.99 32.97 -2.98 35.94 -4 39 C-6.64 39 -9.28 39 -12 39 C-10.37422039 30.56276441 -7.63145497 22.55436793 -4.875 14.4375 C-4.40192249 13.03334498 -3.92926287 11.6290491 -3.45703125 10.22460938 C-2.30949994 6.81476903 -1.15632848 3.40686863 0 0 Z " fill="#424948" transform="translate(340,411)"/>
<path d="M0 0 C3.63 0 7.26 0 11 0 C14.51922052 9.48523638 18.02411096 18.9760816 21.4375 28.5 C21.69611816 29.2108374 21.95473633 29.9216748 22.22119141 30.65405273 C23.26052428 33.57508389 24 35.87398714 24 39 C21.03 39 18.06 39 15 39 C14.34 36.03 13.68 33.06 13 30 C8.05 30 3.1 30 -2 30 C-2.66 32.97 -3.32 35.94 -4 39 C-6.97 39 -9.94 39 -13 39 C-10.80308143 30.23835822 -7.8960957 21.79594071 -4.8125 13.3125 C-4.34401174 12.01381225 -3.8759104 10.71498485 -3.40820312 9.41601562 C-2.27591396 6.27595598 -1.13977817 3.13734732 0 0 Z " fill="#424847" transform="translate(160,411)"/>
<path d="M0 0 C2.64 0 5.28 0 8 0 C8 4.95 8 9.9 8 15 C13.61 15 19.22 15 25 15 C25 10.05 25 5.1 25 0 C27.64 0 30.28 0 33 0 C33 12.87 33 25.74 33 39 C30.36 39 27.72 39 25 39 C25 33.39 25 27.78 25 22 C19.39 22 13.78 22 8 22 C8 27.61 8 33.22 8 39 C5.36 39 2.72 39 0 39 C0 26.13 0 13.26 0 0 Z " fill="#434545" transform="translate(281,411)"/>
<path d="M0 0 C2.64 0 5.28 0 8 0 C8 10.56 8 21.12 8 32 C13.61 32 19.22 32 25 32 C25 34.31 25 36.62 25 39 C16.75 39 8.5 39 0 39 C0 26.13 0 13.26 0 0 Z " fill="#424A48" transform="translate(198,411)"/>
<path d="M0 0 C18.48 0 36.96 0 56 0 C49.87234837 4.9021213 47.38099917 5.17563253 39.86328125 5.23828125 C38.95047897 5.246353 38.0376767 5.25442474 37.09721375 5.26274109 C35.16126406 5.27658767 33.2252899 5.28730725 31.28930664 5.29516602 C28.34148151 5.31233124 25.39479183 5.35620612 22.44726562 5.40039062 C20.5651124 5.41052185 18.68294965 5.41903661 16.80078125 5.42578125 C15.48633781 5.45204338 15.48633781 5.45204338 14.14533997 5.47883606 C8.25773484 5.45818029 4.87242801 4.32999371 0 1 C0 0.67 0 0.34 0 0 Z " fill="#C9C9C9" transform="translate(312,379)"/>
<path d="M0 0 C1.588125 -0.061875 3.17625 -0.12375 4.8125 -0.1875 C6.15248047 -0.23970703 6.15248047 -0.23970703 7.51953125 -0.29296875 C10 0 10 0 11.80078125 1.32421875 C13.65747311 3.91874907 13.38675552 5.90595582 13 9 C11.80078125 10.67578125 11.80078125 10.67578125 10 12 C7.51953125 12.29296875 7.51953125 12.29296875 4.8125 12.1875 C3.224375 12.125625 1.63625 12.06375 0 12 C0 8.04 0 4.08 0 0 Z " fill="#1EE3B2" transform="translate(245,418)"/>
<path d="M0 0 C1.45148641 2.7767566 2.61908683 5.53306419 3.625 8.5 C3.88539063 9.2528125 4.14578125 10.005625 4.4140625 10.78125 C5 13 5 13 5 17 C2.03 17 -0.94 17 -4 17 C-2.75471089 11.30724979 -1.43747278 5.6472145 0 0 Z " fill="#20D9AA" transform="translate(165,418)"/>
<path d="M0 0 C0.97582031 0.36222656 1.95164062 0.72445313 2.95703125 1.09765625 C3.69308594 1.37480469 4.42914063 1.65195312 5.1875 1.9375 C5.1875 2.2675 5.1875 2.5975 5.1875 2.9375 C-3.0625 2.9375 -11.3125 2.9375 -19.8125 2.9375 C-11.79949356 -3.47290515 -9.43950694 -3.52559898 0 0 Z " fill="#0A0A0A" transform="translate(380.8125,381.0625)"/>
<path d="M0 0 C2.49023438 1.51367188 2.49023438 1.51367188 4.98046875 3.02734375 C4.98046875 3.35734375 4.98046875 3.68734375 4.98046875 4.02734375 C-2.93953125 4.02734375 -10.85953125 4.02734375 -19.01953125 4.02734375 C-16.81411737 1.82192987 -15.07285624 1.02999895 -12.20703125 -0.16015625 C-11.35496094 -0.52496094 -10.50289063 -0.88976562 -9.625 -1.265625 C-5.91114517 -2.27343268 -3.4223583 -1.64829249 0 0 Z " fill="#0E0E0E" transform="translate(314.01953125,379.97265625)"/>
<path d="M0 0 C0.66 0 1.32 0 2 0 C2.6700834 2.12392506 3.33596797 4.24917524 4 6.375 C4.37125 7.55835938 4.7425 8.74171875 5.125 9.9609375 C6 13 6 13 6 15 C2.7 15 -0.6 15 -4 15 C-3.79503906 14.25234375 -3.59007812 13.5046875 -3.37890625 12.734375 C-3.10949219 11.74953125 -2.84007812 10.7646875 -2.5625 9.75 C-2.29566406 8.77546875 -2.02882813 7.8009375 -1.75390625 6.796875 C-1.14455416 4.53627347 -0.55761745 2.27377991 0 0 Z " fill="#20DAAB" transform="translate(345,420)"/>
<path d="M0 0 C5.94 0 11.88 0 18 0 C13.98603438 2.67597708 10.0233546 4.63211735 5.25 5.5 C4.5075 5.335 3.765 5.17 3 5 C2.01 3.35 1.02 1.7 0 0 Z " fill="#C4C4C4" transform="translate(287,379)"/>
<path d="M0 0 C5.94 0 11.88 0 18 0 C17.01 1.65 16.02 3.3 15 5 C9.54520815 4.43179252 5.08940744 3.05362055 0 1 C0 0.67 0 0.34 0 0 Z " fill="#BFBFBF" transform="translate(375,379)"/>
<path d="M0 0 C0.66 0.33 1.32 0.66 2 1 C-1.33333333 4.33333333 -4.66666667 7.66666667 -8 11 C-7.91433603 8.087425 -7.42089045 6.43201976 -5.375 4.33203125 C-3.61608625 2.83908228 -1.83686981 1.39563738 0 0 Z " fill="#C7C7C7" transform="translate(283,349)"/>
</svg>
